<svg xmlns="http://www.w3.org/2000/svg" viewBox="0 0 424 180" width="424" height="180">
  <defs>
    <linearGradient id="rhythm-divider-grad" x1="0%" y1="0%" x2="0%" y2="100%">
      <stop offset="0%" stop-color="#1a1b27" stop-opacity="0.0"/>
      <stop offset="50%" stop-color="#3b4261" stop-opacity="0.7"/>
      <stop offset="100%" stop-color="#1a1b27" stop-opacity="0.0"/>
    </linearGradient>
    <linearGradient id="rhythm-day-grad" x1="0%" y1="0%" x2="100%" y2="0%">
      <stop offset="0%" stop-color="#70a5fd"/>
      <stop offset="100%" stop-color="#7aa2f7"/>
    </linearGradient>
    <linearGradient id="rhythm-night-grad" x1="0%" y1="0%" x2="100%" y2="0%">
      <stop offset="0%" stop-color="#bb9af7"/>
      <stop offset="100%" stop-color="#9d7cd8"/>
    </linearGradient>
    <filter id="peak-glow" x="-50%" y="-50%" width="200%" height="200%">
      <feGaussianBlur in="SourceGraphic" stdDeviation="2.5" result="blur"/>
      <feMerge>
        <feMergeNode in="blur"/>
        <feMergeNode in="SourceGraphic"/>
      </feMerge>
    </filter>
  </defs>
  <style>
    .rhythm-title { font-family: -apple-system, BlinkMacSystemFont, 'Segoe UI', Roboto, Helvetica, Arial, sans-serif; font-weight: 700; font-size: 12.5px; letter-spacing: 1.2px; fill: #70a5fd; }
    .rhythm-sub { font-family: -apple-system, BlinkMacSystemFont, 'Segoe UI', Roboto, Helvetica, Arial, sans-serif; font-weight: 500; font-size: 9px; letter-spacing: 0.5px; fill: #787c99; }
    .rhythm-lbl { font-family: -apple-system, BlinkMacSystemFont, 'Segoe UI', Roboto, Helvetica, Arial, sans-serif; font-weight: 600; font-size: 8px; fill: #565f89; }
    .rhythm-persona-txt { font-family: -apple-system, BlinkMacSystemFont, 'Segoe UI', Roboto, Helvetica, Arial, sans-serif; font-weight: 800; font-size: 10px; letter-spacing: 0.6px; fill: #70a5fd; }
    .rhythm-kpi-lbl { font-family: -apple-system, BlinkMacSystemFont, 'Segoe UI', Roboto, Helvetica, Arial, sans-serif; font-weight: 700; font-size: 8px; letter-spacing: 0.8px; fill: #7aa2f7; }
    .rhythm-kpi-val { font-family: -apple-system, BlinkMacSystemFont, 'Segoe UI', Roboto, Helvetica, Arial, sans-serif; font-weight: 800; font-size: 13px; fill: #c0caf5; }
    .rhythm-stat-txt { font-family: -apple-system, BlinkMacSystemFont, 'Segoe UI', Roboto, Helvetica, Arial, sans-serif; font-weight: 600; font-size: 7.8px; letter-spacing: 0.2px; fill: #7982a9; }
    .rhythm-count-txt { font-family: -apple-system, BlinkMacSystemFont, 'Segoe UI', Roboto, Helvetica, Arial, sans-serif; font-weight: 500; font-size: 8px; fill: #565f89; }
  </style>
  <rect width="424" height="180" rx="4.5" fill="#1a1b27" stroke="#24283b" stroke-width="1"/>
  <!-- Header -->
  <text x="22" y="25.0" class="rhythm-title">COMMIT RHYTHM</text>
  <circle cx="152" cy="21.5" r="2.5" fill="#70a5fd"/>
  <text x="160" y="24.5" class="rhythm-sub">24H × 7D MATRIX</text>
  <text x="34" y="58.0" class="rhythm-lbl" text-anchor="end">Mon</text>
  <text x="34" y="70.0" class="rhythm-lbl" text-anchor="end">Tue</text>
  <text x="34" y="82.0" class="rhythm-lbl" text-anchor="end">Wed</text>
  <text x="34" y="94.0" class="rhythm-lbl" text-anchor="end">Thu</text>
  <text x="34" y="106.0" class="rhythm-lbl" text-anchor="end">Fri</text>
  <text x="34" y="118.0" class="rhythm-lbl" text-anchor="end">Sat</text>
  <text x="34" y="130.0" class="rhythm-lbl" text-anchor="end">Sun</text>
  <!-- Matrix Cells -->
  <g transform="translate(42.0, 50.0)">
    <rect x="0.0" y="0.0" width="8.0" height="8.5" rx="2" fill="#3d59a1"/>
    <rect x="10.0" y="0.0" width="8.0" height="8.5" rx="2" fill="#2e3c64"/>
    <rect x="20.0" y="0.0" width="8.0" height="8.5" rx="2" fill="#1f2335" fill-opacity="0.35"/>
    <rect x="30.0" y="0.0" width="8.0" height="8.5" rx="2" fill="#3d59a1"/>
    <rect x="40.0" y="0.0" width="8.0" height="8.5" rx="2" fill="#1f2335" fill-opacity="0.35"/>
    <rect x="50.0" y="0.0" width="8.0" height="8.5" rx="2" fill="#2e3c64"/>
    <rect x="60.0" y="0.0" width="8.0" height="8.5" rx="2" fill="#1f2335" fill-opacity="0.35"/>
    <rect x="70.0" y="0.0" width="8.0" height="8.5" rx="2" fill="#1f2335" fill-opacity="0.35"/>
    <rect x="80.0" y="0.0" width="8.0" height="8.5" rx="2" fill="#1f2335" fill-opacity="0.35"/>
    <rect x="90.0" y="0.0" width="8.0" height="8.5" rx="2" fill="#2e3c64"/>
    <rect x="100.0" y="0.0" width="8.0" height="8.5" rx="2" fill="#2e3c64"/>
    <rect x="110.0" y="0.0" width="8.0" height="8.5" rx="2" fill="#3d59a1"/>
    <rect x="120.0" y="0.0" width="8.0" height="8.5" rx="2" fill="#3d59a1"/>
    <rect x="130.0" y="0.0" width="8.0" height="8.5" rx="2" fill="#3d59a1"/>
    <rect x="140.0" y="0.0" width="8.0" height="8.5" rx="2" fill="#2e3c64"/>
    <rect x="150.0" y="0.0" width="8.0" height="8.5" rx="2" fill="#2e3c64"/>
    <rect x="160.0" y="0.0" width="8.0" height="8.5" rx="2" fill="#1f2335" fill-opacity="0.35"/>
    <rect x="170.0" y="0.0" width="8.0" height="8.5" rx="2" fill="#3d59a1"/>
    <rect x="180.0" y="0.0" width="8.0" height="8.5" rx="2" fill="#bb9af7" filter="url(#peak-glow)"/>
    <rect x="190.0" y="0.0" width="8.0" height="8.5" rx="2" fill="#1f2335" fill-opacity="0.35"/>
    <rect x="200.0" y="0.0" width="8.0" height="8.5" rx="2" fill="#2e3c64"/>
    <rect x="210.0" y="0.0" width="8.0" height="8.5" rx="2" fill="#3d59a1"/>
    <rect x="220.0" y="0.0" width="8.0" height="8.5" rx="2" fill="#2e3c64"/>
    <rect x="230.0" y="0.0" width="8.0" height="8.5" rx="2" fill="#7aa2f7"/>
    <rect x="0.0" y="12.0" width="8.0" height="8.5" rx="2" fill="#7aa2f7"/>
    <rect x="10.0" y="12.0" width="8.0" height="8.5" rx="2" fill="#3d59a1"/>
    <rect x="20.0" y="12.0" width="8.0" height="8.5" rx="2" fill="#2e3c64"/>
    <rect x="30.0" y="12.0" width="8.0" height="8.5" rx="2" fill="#2e3c64"/>
    <rect x="40.0" y="12.0" width="8.0" height="8.5" rx="2" fill="#2e3c64"/>
    <rect x="50.0" y="12.0" width="8.0" height="8.5" rx="2" fill="#1f2335" fill-opacity="0.35"/>
    <rect x="60.0" y="12.0" width="8.0" height="8.5" rx="2" fill="#1f2335" fill-opacity="0.35"/>
    <rect x="70.0" y="12.0" width="8.0" height="8.5" rx="2" fill="#1f2335" fill-opacity="0.35"/>
    <rect x="80.0" y="12.0" width="8.0" height="8.5" rx="2" fill="#2e3c64"/>
    <rect x="90.0" y="12.0" width="8.0" height="8.5" rx="2" fill="#7aa2f7"/>
    <rect x="100.0" y="12.0" width="8.0" height="8.5" rx="2" fill="#3d59a1"/>
    <rect x="110.0" y="12.0" width="8.0" height="8.5" rx="2" fill="#7aa2f7"/>
    <rect x="120.0" y="12.0" width="8.0" height="8.5" rx="2" fill="#7aa2f7"/>
    <rect x="130.0" y="12.0" width="8.0" height="8.5" rx="2" fill="#3d59a1"/>
    <rect x="140.0" y="12.0" width="8.0" height="8.5" rx="2" fill="#7aa2f7"/>
    <rect x="150.0" y="12.0" width="8.0" height="8.5" rx="2" fill="#2e3c64"/>
    <rect x="160.0" y="12.0" width="8.0" height="8.5" rx="2" fill="#3d59a1"/>
    <rect x="170.0" y="12.0" width="8.0" height="8.5" rx="2" fill="#2e3c64"/>
    <rect x="180.0" y="12.0" width="8.0" height="8.5" rx="2" fill="#2e3c64"/>
    <rect x="190.0" y="12.0" width="8.0" height="8.5" rx="2" fill="#1f2335" fill-opacity="0.35"/>
    <rect x="200.0" y="12.0" width="8.0" height="8.5" rx="2" fill="#2e3c64"/>
    <rect x="210.0" y="12.0" width="8.0" height="8.5" rx="2" fill="#3d59a1"/>
    <rect x="220.0" y="12.0" width="8.0" height="8.5" rx="2" fill="#2e3c64"/>
    <rect x="230.0" y="12.0" width="8.0" height="8.5" rx="2" fill="#2e3c64"/>
    <rect x="0.0" y="24.0" width="8.0" height="8.5" rx="2" fill="#1f2335" fill-opacity="0.35"/>
    <rect x="10.0" y="24.0" width="8.0" height="8.5" rx="2" fill="#1f2335" fill-opacity="0.35"/>
    <rect x="20.0" y="24.0" width="8.0" height="8.5" rx="2" fill="#1f2335" fill-opacity="0.35"/>
    <rect x="30.0" y="24.0" width="8.0" height="8.5" rx="2" fill="#1f2335" fill-opacity="0.35"/>
    <rect x="40.0" y="24.0" width="8.0" height="8.5" rx="2" fill="#1f2335" fill-opacity="0.35"/>
    <rect x="50.0" y="24.0" width="8.0" height="8.5" rx="2" fill="#2e3c64"/>
    <rect x="60.0" y="24.0" width="8.0" height="8.5" rx="2" fill="#1f2335" fill-opacity="0.35"/>
    <rect x="70.0" y="24.0" width="8.0" height="8.5" rx="2" fill="#2e3c64"/>
    <rect x="80.0" y="24.0" width="8.0" height="8.5" rx="2" fill="#2e3c64"/>
    <rect x="90.0" y="24.0" width="8.0" height="8.5" rx="2" fill="#2e3c64"/>
    <rect x="100.0" y="24.0" width="8.0" height="8.5" rx="2" fill="#2e3c64"/>
    <rect x="110.0" y="24.0" width="8.0" height="8.5" rx="2" fill="#bb9af7"/>
    <rect x="120.0" y="24.0" width="8.0" height="8.5" rx="2" fill="#7aa2f7"/>
    <rect x="130.0" y="24.0" width="8.0" height="8.5" rx="2" fill="#3d59a1"/>
    <rect x="140.0" y="24.0" width="8.0" height="8.5" rx="2" fill="#2e3c64"/>
    <rect x="150.0" y="24.0" width="8.0" height="8.5" rx="2" fill="#1f2335" fill-opacity="0.35"/>
    <rect x="160.0" y="24.0" width="8.0" height="8.5" rx="2" fill="#3d59a1"/>
    <rect x="170.0" y="24.0" width="8.0" height="8.5" rx="2" fill="#3d59a1"/>
    <rect x="180.0" y="24.0" width="8.0" height="8.5" rx="2" fill="#3d59a1"/>
    <rect x="190.0" y="24.0" width="8.0" height="8.5" rx="2" fill="#3d59a1"/>
    <rect x="200.0" y="24.0" width="8.0" height="8.5" rx="2" fill="#2e3c64"/>
    <rect x="210.0" y="24.0" width="8.0" height="8.5" rx="2" fill="#1f2335" fill-opacity="0.35"/>
    <rect x="220.0" y="24.0" width="8.0" height="8.5" rx="2" fill="#2e3c64"/>
    <rect x="230.0" y="24.0" width="8.0" height="8.5" rx="2" fill="#2e3c64"/>
    <rect x="0.0" y="36.0" width="8.0" height="8.5" rx="2" fill="#1f2335" fill-opacity="0.35"/>
    <rect x="10.0" y="36.0" width="8.0" height="8.5" rx="2" fill="#1f2335" fill-opacity="0.35"/>
    <rect x="20.0" y="36.0" width="8.0" height="8.5" rx="2" fill="#1f2335" fill-opacity="0.35"/>
    <rect x="30.0" y="36.0" width="8.0" height="8.5" rx="2" fill="#1f2335" fill-opacity="0.35"/>
    <rect x="40.0" y="36.0" width="8.0" height="8.5" rx="2" fill="#1f2335" fill-opacity="0.35"/>
    <rect x="50.0" y="36.0" width="8.0" height="8.5" rx="2" fill="#1f2335" fill-opacity="0.35"/>
    <rect x="60.0" y="36.0" width="8.0" height="8.5" rx="2" fill="#1f2335" fill-opacity="0.35"/>
    <rect x="70.0" y="36.0" width="8.0" height="8.5" rx="2" fill="#1f2335" fill-opacity="0.35"/>
    <rect x="80.0" y="36.0" width="8.0" height="8.5" rx="2" fill="#1f2335" fill-opacity="0.35"/>
    <rect x="90.0" y="36.0" width="8.0" height="8.5" rx="2" fill="#2e3c64"/>
    <rect x="100.0" y="36.0" width="8.0" height="8.5" rx="2" fill="#7aa2f7"/>
    <rect x="110.0" y="36.0" width="8.0" height="8.5" rx="2" fill="#3d59a1"/>
    <rect x="120.0" y="36.0" width="8.0" height="8.5" rx="2" fill="#7aa2f7"/>
    <rect x="130.0" y="36.0" width="8.0" height="8.5" rx="2" fill="#3d59a1"/>
    <rect x="140.0" y="36.0" width="8.0" height="8.5" rx="2" fill="#1f2335" fill-opacity="0.35"/>
    <rect x="150.0" y="36.0" width="8.0" height="8.5" rx="2" fill="#3d59a1"/>
    <rect x="160.0" y="36.0" width="8.0" height="8.5" rx="2" fill="#3d59a1"/>
    <rect x="170.0" y="36.0" width="8.0" height="8.5" rx="2" fill="#3d59a1"/>
    <rect x="180.0" y="36.0" width="8.0" height="8.5" rx="2" fill="#3d59a1"/>
    <rect x="190.0" y="36.0" width="8.0" height="8.5" rx="2" fill="#3d59a1"/>
    <rect x="200.0" y="36.0" width="8.0" height="8.5" rx="2" fill="#1f2335" fill-opacity="0.35"/>
    <rect x="210.0" y="36.0" width="8.0" height="8.5" rx="2" fill="#7aa2f7"/>
    <rect x="220.0" y="36.0" width="8.0" height="8.5" rx="2" fill="#2e3c64"/>
    <rect x="230.0" y="36.0" width="8.0" height="8.5" rx="2" fill="#1f2335" fill-opacity="0.35"/>
    <rect x="0.0" y="48.0" width="8.0" height="8.5" rx="2" fill="#2e3c64"/>
    <rect x="10.0" y="48.0" width="8.0" height="8.5" rx="2" fill="#2e3c64"/>
    <rect x="20.0" y="48.0" width="8.0" height="8.5" rx="2" fill="#1f2335" fill-opacity="0.35"/>
    <rect x="30.0" y="48.0" width="8.0" height="8.5" rx="2" fill="#3d59a1"/>
    <rect x="40.0" y="48.0" width="8.0" height="8.5" rx="2" fill="#2e3c64"/>
    <rect x="50.0" y="48.0" width="8.0" height="8.5" rx="2" fill="#2e3c64"/>
    <rect x="60.0" y="48.0" width="8.0" height="8.5" rx="2" fill="#1f2335" fill-opacity="0.35"/>
    <rect x="70.0" y="48.0" width="8.0" height="8.5" rx="2" fill="#1f2335" fill-opacity="0.35"/>
    <rect x="80.0" y="48.0" width="8.0" height="8.5" rx="2" fill="#2e3c64"/>
    <rect x="90.0" y="48.0" width="8.0" height="8.5" rx="2" fill="#2e3c64"/>
    <rect x="100.0" y="48.0" width="8.0" height="8.5" rx="2" fill="#2e3c64"/>
    <rect x="110.0" y="48.0" width="8.0" height="8.5" rx="2" fill="#2e3c64"/>
    <rect x="120.0" y="48.0" width="8.0" height="8.5" rx="2" fill="#bb9af7"/>
    <rect x="130.0" y="48.0" width="8.0" height="8.5" rx="2" fill="#7aa2f7"/>
    <rect x="140.0" y="48.0" width="8.0" height="8.5" rx="2" fill="#3d59a1"/>
    <rect x="150.0" y="48.0" width="8.0" height="8.5" rx="2" fill="#3d59a1"/>
    <rect x="160.0" y="48.0" width="8.0" height="8.5" rx="2" fill="#2e3c64"/>
    <rect x="170.0" y="48.0" width="8.0" height="8.5" rx="2" fill="#1f2335" fill-opacity="0.35"/>
    <rect x="180.0" y="48.0" width="8.0" height="8.5" rx="2" fill="#3d59a1"/>
    <rect x="190.0" y="48.0" width="8.0" height="8.5" rx="2" fill="#3d59a1"/>
    <rect x="200.0" y="48.0" width="8.0" height="8.5" rx="2" fill="#3d59a1"/>
    <rect x="210.0" y="48.0" width="8.0" height="8.5" rx="2" fill="#2e3c64"/>
    <rect x="220.0" y="48.0" width="8.0" height="8.5" rx="2" fill="#3d59a1"/>
    <rect x="230.0" y="48.0" width="8.0" height="8.5" rx="2" fill="#2e3c64"/>
    <rect x="0.0" y="60.0" width="8.0" height="8.5" rx="2" fill="#3d59a1"/>
    <rect x="10.0" y="60.0" width="8.0" height="8.5" rx="2" fill="#3d59a1"/>
    <rect x="20.0" y="60.0" width="8.0" height="8.5" rx="2" fill="#2e3c64"/>
    <rect x="30.0" y="60.0" width="8.0" height="8.5" rx="2" fill="#2e3c64"/>
    <rect x="40.0" y="60.0" width="8.0" height="8.5" rx="2" fill="#1f2335" fill-opacity="0.35"/>
    <rect x="50.0" y="60.0" width="8.0" height="8.5" rx="2" fill="#3d59a1"/>
    <rect x="60.0" y="60.0" width="8.0" height="8.5" rx="2" fill="#1f2335" fill-opacity="0.35"/>
    <rect x="70.0" y="60.0" width="8.0" height="8.5" rx="2" fill="#2e3c64"/>
    <rect x="80.0" y="60.0" width="8.0" height="8.5" rx="2" fill="#2e3c64"/>
    <rect x="90.0" y="60.0" width="8.0" height="8.5" rx="2" fill="#3d59a1"/>
    <rect x="100.0" y="60.0" width="8.0" height="8.5" rx="2" fill="#3d59a1"/>
    <rect x="110.0" y="60.0" width="8.0" height="8.5" rx="2" fill="#3d59a1"/>
    <rect x="120.0" y="60.0" width="8.0" height="8.5" rx="2" fill="#7aa2f7"/>
    <rect x="130.0" y="60.0" width="8.0" height="8.5" rx="2" fill="#bb9af7"/>
    <rect x="140.0" y="60.0" width="8.0" height="8.5" rx="2" fill="#3d59a1"/>
    <rect x="150.0" y="60.0" width="8.0" height="8.5" rx="2" fill="#3d59a1"/>
    <rect x="160.0" y="60.0" width="8.0" height="8.5" rx="2" fill="#2e3c64"/>
    <rect x="170.0" y="60.0" width="8.0" height="8.5" rx="2" fill="#2e3c64"/>
    <rect x="180.0" y="60.0" width="8.0" height="8.5" rx="2" fill="#3d59a1"/>
    <rect x="190.0" y="60.0" width="8.0" height="8.5" rx="2" fill="#2e3c64"/>
    <rect x="200.0" y="60.0" width="8.0" height="8.5" rx="2" fill="#2e3c64"/>
    <rect x="210.0" y="60.0" width="8.0" height="8.5" rx="2" fill="#2e3c64"/>
    <rect x="220.0" y="60.0" width="8.0" height="8.5" rx="2" fill="#3d59a1"/>
    <rect x="230.0" y="60.0" width="8.0" height="8.5" rx="2" fill="#3d59a1"/>
    <rect x="0.0" y="72.0" width="8.0" height="8.5" rx="2" fill="#3d59a1"/>
    <rect x="10.0" y="72.0" width="8.0" height="8.5" rx="2" fill="#1f2335" fill-opacity="0.35"/>
    <rect x="20.0" y="72.0" width="8.0" height="8.5" rx="2" fill="#1f2335" fill-opacity="0.35"/>
    <rect x="30.0" y="72.0" width="8.0" height="8.5" rx="2" fill="#2e3c64"/>
    <rect x="40.0" y="72.0" width="8.0" height="8.5" rx="2" fill="#1f2335" fill-opacity="0.35"/>
    <rect x="50.0" y="72.0" width="8.0" height="8.5" rx="2" fill="#1f2335" fill-opacity="0.35"/>
    <rect x="60.0" y="72.0" width="8.0" height="8.5" rx="2" fill="#2e3c64"/>
    <rect x="70.0" y="72.0" width="8.0" height="8.5" rx="2" fill="#3d59a1"/>
    <rect x="80.0" y="72.0" width="8.0" height="8.5" rx="2" fill="#7aa2f7"/>
    <rect x="90.0" y="72.0" width="8.0" height="8.5" rx="2" fill="#3d59a1"/>
    <rect x="100.0" y="72.0" width="8.0" height="8.5" rx="2" fill="#3d59a1"/>
    <rect x="110.0" y="72.0" width="8.0" height="8.5" rx="2" fill="#2e3c64"/>
    <rect x="120.0" y="72.0" width="8.0" height="8.5" rx="2" fill="#3d59a1"/>
    <rect x="130.0" y="72.0" width="8.0" height="8.5" rx="2" fill="#2e3c64"/>
    <rect x="140.0" y="72.0" width="8.0" height="8.5" rx="2" fill="#2e3c64"/>
    <rect x="150.0" y="72.0" width="8.0" height="8.5" rx="2" fill="#3d59a1"/>
    <rect x="160.0" y="72.0" width="8.0" height="8.5" rx="2" fill="#2e3c64"/>
    <rect x="170.0" y="72.0" width="8.0" height="8.5" rx="2" fill="#2e3c64"/>
    <rect x="180.0" y="72.0" width="8.0" height="8.5" rx="2" fill="#1f2335" fill-opacity="0.35"/>
    <rect x="190.0" y="72.0" width="8.0" height="8.5" rx="2" fill="#2e3c64"/>
    <rect x="200.0" y="72.0" width="8.0" height="8.5" rx="2" fill="#2e3c64"/>
    <rect x="210.0" y="72.0" width="8.0" height="8.5" rx="2" fill="#2e3c64"/>
    <rect x="220.0" y="72.0" width="8.0" height="8.5" rx="2" fill="#3d59a1"/>
    <rect x="230.0" y="72.0" width="8.0" height="8.5" rx="2" fill="#2e3c64"/>
    <text x="0" y="94.0" class="rhythm-lbl" text-anchor="middle">12a</text>
    <text x="40" y="94.0" class="rhythm-lbl" text-anchor="middle">4a</text>
    <text x="80" y="94.0" class="rhythm-lbl" text-anchor="middle">8a</text>
    <text x="120" y="94.0" class="rhythm-lbl" text-anchor="middle">12p</text>
    <text x="160" y="94.0" class="rhythm-lbl" text-anchor="middle">4p</text>
    <text x="200" y="94.0" class="rhythm-lbl" text-anchor="middle">8p</text>
    <text x="230" y="94.0" class="rhythm-lbl" text-anchor="middle">11p</text>
  </g>
  <!-- Glass Divider -->
  <line x1="290.0" y1="22" x2="290.0" y2="158.0" stroke="url(#rhythm-divider-grad)" stroke-width="1"/>
  <!-- Right Column: Analytics & Persona -->
  <g transform="translate(298, 0)">
    <!-- Persona Badge Pill -->
    <g transform="translate(59, 38)">
      <rect x="-48" y="-12" width="96" height="24" rx="12" fill="#1f2335" stroke="#70a5fd" stroke-opacity="0.4" stroke-width="1"/>
      <text x="0" y="4" text-anchor="middle" class="rhythm-persona-txt">⚡ Day Architect</text>
    </g>

    <!-- Peak Window KPI -->
    <g transform="translate(5, 72)">
      <text x="0" y="0" class="rhythm-kpi-lbl">PEAK WINDOW</text>
      <text x="0" y="15" class="rhythm-kpi-val">10:00 – 14:00</text>
    </g>

    <!-- Circadian Split Bar -->
    <g transform="translate(5, 108)">
      <text x="0" y="0" class="rhythm-kpi-lbl">CIRCADIAN SPLIT</text>
      <rect x="0" y="6" width="108" height="6" rx="3" fill="#24283b"/>
      <rect x="0" y="6" width="77.8" height="6" rx="3" fill="url(#rhythm-day-grad)"/>
      <rect x="77.8" y="6" width="30.2" height="6" rx="3" fill="url(#rhythm-night-grad)"/>
      <text x="0" y="23" class="rhythm-stat-txt">☀️ 72% Day</text>
      <text x="108" y="23" class="rhythm-stat-txt" text-anchor="end">🌙 28% Night</text>
    </g>

    <!-- Analyzed Commits Footnote -->
    <text x="59" y="156" text-anchor="middle" class="rhythm-count-txt">657 Commits Mapped</text>
  </g>
</svg>
