<svg width="400" height="92" viewBox="0 0 400 92" fill="none" xmlns="http://www.w3.org/2000/svg">
<style>
        .card-title { font-family: -apple-system, BlinkMacSystemFont, 'Segoe UI', Roboto, Helvetica, Arial, sans-serif; font-size: 14px; font-weight: 600; fill: #70a5fd; }
        .lang-name { font-family: -apple-system, BlinkMacSystemFont, 'Segoe UI', Roboto, Helvetica, Arial, sans-serif; font-size: 11px; font-weight: 500; fill: #c0caf5; }
        .bar-bg { fill: #212337; rx: 4px; }
    </style><rect width="400" height="92" rx="4.5" fill="#1a1b27" stroke="#24283b" stroke-width="1"/><text x="20" y="24" class="card-title">Most Used Languages</text><rect class="bar-bg" x="20" y="42" width="360" height="8" rx="4"/>
    <defs>
        <clipPath id="compact-bar-clip">
            <rect x="20" y="42" width="360" height="8" rx="4"/>
        </clipPath>
    </defs>
    <g clip-path="url(#compact-bar-clip)"><rect x="20.00" y="42" width="115.78" height="8" fill="#3178c6"><title>TypeScript: 32.16%</title></rect><rect x="135.78" y="42" width="73.24" height="8" fill="#3572A5"><title>Python: 20.34%</title></rect><rect x="209.01" y="42" width="58.29" height="8" fill="#dea584"><title>Rust: 16.19%</title></rect><rect x="267.30" y="42" width="45.44" height="8" fill="#b07219"><title>Java: 12.62%</title></rect><rect x="312.74" y="42" width="29.30" height="8" fill="#f34b7d"><title>C++: 8.14%</title></rect><rect x="342.04" y="42" width="19.13" height="8" fill="#f1e05a"><title>JavaScript: 5.31%</title></rect><rect x="361.17" y="42" width="11.36" height="8" fill="#89e051"><title>Shell: 3.16%</title></rect><rect x="372.53" y="42" width="7.47" height="8" fill="#178600"><title>C#: 2.08%</title></rect></g><circle cx="24.0" cy="64.5" r="3.5" fill="#3178c6"/>
<text x="32.0" y="68" class="lang-name">TypeScript 32%</text><circle cx="139.0" cy="64.5" r="3.5" fill="#3572A5"/>
<text x="147.0" y="68" class="lang-name">Python 20%</text><circle cx="226.0" cy="64.5" r="3.5" fill="#dea584"/>
<text x="234.0" y="68" class="lang-name">Rust 16%</text><circle cx="299.0" cy="64.5" r="3.5" fill="#b07219"/>
<text x="307.0" y="68" class="lang-name">Java 13%</text></svg>